<svg width="72" height="81" viewBox="0 0 72 81" fill="none" xmlns="http://www.w3.org/2000/svg">
<path fill-rule="evenodd" clip-rule="evenodd" d="M5.22058 12.0074H20.3603L20.8823 13.5735L17.75 15.6618L19.8382 18.7941L17.75 21.9265L20.8823 24.0147V25.0588H5.22058L7.83088 18.2721L5.22058 12.0074Z" stroke="#EF7F1A" stroke-width="2.08824" stroke-miterlimit="22.9256" stroke-linecap="round" stroke-linejoin="round"/>
<path fill-rule="evenodd" clip-rule="evenodd" d="M66.3015 12.0074H50.6397L50.1177 13.5735L52.728 15.6618L51.1618 18.7941L52.728 21.9265L50.1177 24.0147V25.0588H66.3015L63.1692 18.2721L66.3015 12.0074Z" stroke="#EF7F1A" stroke-width="2.08824" stroke-miterlimit="22.9256" stroke-linecap="round" stroke-linejoin="round"/>
<path fill-rule="evenodd" clip-rule="evenodd" d="M35.5 1.04413L38.1103 3.65442L41.7647 2.08825L43.3309 5.2206H46.9853L47.5074 8.87501L50.6397 9.91913L50.1176 13.5735L52.7279 15.6618L51.1618 18.7941L52.7279 21.9265L50.1176 24.0147L50.6397 27.6691L47.5074 28.7132L46.9853 32.3677H43.3309L41.7647 35.5L38.1103 33.9338L35.5 36.5441L32.8897 33.9338L29.2353 35.5L27.6691 32.3677H24.0147L23.4926 28.7132L19.8382 27.6691L20.8824 24.0147L17.75 21.9265L19.8382 18.7941L17.75 15.6618L20.8824 13.5735L19.8382 9.91913L23.4926 8.87501L24.0147 5.2206H27.6691L29.2353 2.08825L32.8897 3.65442L35.5 1.04413Z" stroke="#EF7F1A" stroke-width="2.08824" stroke-miterlimit="22.9256" stroke-linecap="round" stroke-linejoin="round"/>
<path fill-rule="evenodd" clip-rule="evenodd" d="M35.5 5.74265L37.5882 7.83088L39.6765 6.78676L41.2426 8.875H43.8529V11.4853L46.4632 12.5294L45.9412 14.6176L48.0294 16.7059L46.4632 18.7941L48.0294 20.8824L45.9412 22.4485L46.4632 25.0588L43.8529 26.1029V28.7132L41.2426 28.1912L39.6765 30.8015L37.5882 29.7574L35.5 31.3235L33.4118 29.7574L31.3235 30.8015L29.7573 28.7132H27.1471V26.1029L24.5368 25.0588L25.0588 22.4485L22.9706 20.8824L24.0147 18.7941L22.9706 16.7059L25.0588 15.1397L24.5368 12.5294L26.625 11.4853L27.1471 8.875H29.7573L31.3235 6.78676L33.4118 7.83088L35.5 5.74265Z" stroke="#EF7F1A" stroke-width="1.04412" stroke-miterlimit="22.9256" stroke-linecap="round" stroke-linejoin="round"/>
<path fill-rule="evenodd" clip-rule="evenodd" d="M32.8897 13.5735V10.4412H39.1544V13.5735H37.5882V24.0147H39.1544V26.625H32.8897V24.0147H34.4559V13.5735H32.8897Z" stroke="#EF7F1A" stroke-width="1.04412" stroke-miterlimit="22.9256" stroke-linecap="round" stroke-linejoin="round"/>
<path fill-rule="evenodd" clip-rule="evenodd" d="M26.625 38.6324L27.6691 40.1985L29.7574 40.7206L28.7133 42.2868V44.375L26.625 43.8529L24.5368 44.375V42.2868L23.4927 40.7206L25.0589 40.1985L26.625 38.6324Z" stroke="#EF7F1A" stroke-width="1.04412" stroke-miterlimit="22.9256" stroke-linecap="round" stroke-linejoin="round"/>
<path fill-rule="evenodd" clip-rule="evenodd" d="M36.0221 39.6765L37.0662 41.2427L39.1544 42.2868L38.1103 43.853V45.9412L36.0221 45.4191L33.9338 45.9412V43.853L32.8897 42.2868L34.4559 41.2427L36.0221 39.6765Z" stroke="#EF7F1A" stroke-width="1.04412" stroke-miterlimit="22.9256" stroke-linecap="round" stroke-linejoin="round"/>
<path fill-rule="evenodd" clip-rule="evenodd" d="M45.4192 38.1103L46.4633 39.6765L48.5515 40.1985L47.5074 41.7647V43.8529L45.4192 43.3309L43.3309 43.8529V42.2868L42.2868 40.1985L43.853 39.6765L45.4192 38.1103Z" stroke="#EF7F1A" stroke-width="1.04412" stroke-miterlimit="22.9256" stroke-linecap="round" stroke-linejoin="round"/>
<path fill-rule="evenodd" clip-rule="evenodd" d="M41.2426 47.5074L42.2868 49.5956L44.375 50.1176L43.3309 51.6838V53.7721L41.2426 53.25L39.1544 53.7721V51.6838L38.1103 50.1176L40.1985 49.5956L41.2426 47.5074Z" stroke="#EF7F1A" stroke-width="1.04412" stroke-miterlimit="22.9256" stroke-linecap="round" stroke-linejoin="round"/>
<path fill-rule="evenodd" clip-rule="evenodd" d="M30.8015 47.5074L32.3677 49.0735L34.4559 50.1176L32.8897 51.6838V53.7721L31.3235 53.25L29.2353 53.7721V51.6838L27.6691 50.1176L29.7574 49.5956L30.8015 47.5074Z" stroke="#EF7F1A" stroke-width="1.04412" stroke-miterlimit="22.9256" stroke-linecap="round" stroke-linejoin="round"/>
<path fill-rule="evenodd" clip-rule="evenodd" d="M26.103 69.9559C26.103 67.3456 26.103 63.1691 25.5809 60.5588C25.0588 57.9485 24.0147 56.3824 22.9706 55.3382C21.9265 54.2941 21.4044 53.25 20.3603 52.2059C19.3162 51.1618 18.2721 50.1177 17.228 48.5515C15.6618 46.9853 13.5735 44.375 12.5294 43.3309C10.9632 42.2868 9.91913 42.8088 9.39707 42.8088C8.87501 43.3309 8.35295 43.853 8.87501 44.375C8.87501 44.8971 8.87501 45.4191 9.91913 46.9853C10.9632 48.5515 12.0074 50.1177 12.5294 51.6838C13.5735 53.25 13.5735 54.2941 13.5735 54.8162C13.0515 55.3382 12.5294 55.3382 11.4853 53.7721C10.4412 52.2059 8.87501 49.5956 7.83089 47.5074C6.78678 45.4191 6.26472 44.375 6.26472 42.2868C5.74266 40.1985 5.74266 37.0662 5.2206 34.978C5.2206 33.4118 4.69854 31.8456 4.17648 31.3235C3.65442 30.8015 2.6103 30.8015 2.08825 30.8015C1.56619 31.3235 1.04413 31.8456 1.04413 32.3677C1.04413 33.4118 1.04413 33.9338 1.56619 37.0662C1.56619 40.1985 2.08825 45.9412 2.08825 48.5515C2.6103 51.6838 2.61031 51.6838 4.69854 54.2941C6.78678 56.9044 10.4412 61.0809 12.5294 63.6912C14.0956 66.3015 14.0956 66.3015 14.6177 67.3456C14.6177 67.8677 14.6177 68.9118 14.6177 69.9559H26.103Z" stroke="#EF7F1A" stroke-width="2.08824" stroke-miterlimit="22.9256" stroke-linecap="round" stroke-linejoin="round"/>
<path d="M4.69855 32.8897C5.22061 32.8897 5.22061 32.3677 5.74266 32.3677C6.26472 32.3677 6.78678 32.3677 7.30884 32.8897L7.8309 33.4118C7.8309 33.9339 8.35296 34.4559 8.35296 36.0221C8.87502 37.5883 9.39708 40.1986 9.91914 42.8089" stroke="#EF7F1A" stroke-width="2.08824" stroke-miterlimit="22.9256" stroke-linecap="round" stroke-linejoin="round"/>
<path d="M8.35297 34.4559C8.35297 34.4559 8.87503 34.4559 9.39708 34.4559C9.39708 34.4559 9.91914 34.4559 10.4412 34.978C10.4412 34.978 10.9633 35.5 10.9633 36.0221C11.4853 36.5441 11.4853 37.5883 12.0074 39.1544C12.0074 40.1985 12.5294 42.2868 13.0515 44.375" stroke="#EF7F1A" stroke-width="2.08824" stroke-miterlimit="22.9256" stroke-linecap="round" stroke-linejoin="round"/>
<path d="M27.6691 69.9559H12.0074V79.875H27.6691V69.9559Z" stroke="#EF7F1A" stroke-width="2.08824" stroke-miterlimit="22.9256" stroke-linecap="round" stroke-linejoin="round"/>
<path fill-rule="evenodd" clip-rule="evenodd" d="M44.375 69.9559C44.375 67.8677 44.375 63.6912 44.8971 60.5588C45.4191 57.9485 46.4632 56.9044 47.5074 55.8603C48.5515 54.2941 49.5956 53.25 50.6397 52.728C51.6838 51.6838 52.2059 50.6397 53.7721 49.0735C55.3382 46.9853 57.4265 44.8971 58.4706 43.853C60.0368 42.8088 61.0809 42.8088 61.6029 43.3309C62.125 43.3309 62.6471 43.853 62.6471 44.375C62.125 44.8971 62.125 45.9412 61.0809 46.9853C60.5588 48.5515 58.9926 50.6397 58.4706 52.2059C57.4265 53.7721 57.4265 54.8162 57.4265 55.3383C57.9485 55.8603 58.4706 55.8603 59.5147 54.2941C60.5588 52.728 62.125 49.5956 63.1691 47.5074C64.2132 45.4191 64.7353 44.375 64.7353 42.2868C65.2574 40.1985 65.7794 37.5883 65.7794 35.5C66.3015 33.4118 66.3015 32.3677 66.8235 31.3236C67.3456 30.8015 68.3897 30.8015 68.9118 31.3236C69.4338 31.3236 69.9559 31.8456 69.9559 32.8897C70.4779 33.4118 69.9559 34.4559 69.9559 37.5883C69.4338 40.7206 69.4338 45.9412 68.9118 48.5515C68.3897 51.6838 68.3897 52.2059 66.3015 54.2941C64.2132 56.9044 60.5588 61.603 58.4706 63.6912C56.9044 66.3015 56.3824 66.3015 56.3824 67.3456C56.3824 67.8677 56.3824 68.9118 56.3824 69.9559H44.375V69.9559Z" stroke="#EF7F1A" stroke-width="2.08824" stroke-miterlimit="22.9256" stroke-linecap="round" stroke-linejoin="round"/>
<path d="M66.3015 32.8897C65.7794 32.8897 65.7794 32.8897 65.2573 32.8897C64.7353 32.3677 64.2132 32.3677 64.2132 32.8897C63.6912 32.8897 63.1691 33.4118 63.1691 33.9338C63.1691 33.9338 63.1691 34.4559 62.6471 36.0221C62.125 37.5882 61.6029 40.1985 61.0809 42.8088" stroke="#EF7F1A" stroke-width="2.08824" stroke-miterlimit="22.9256" stroke-linecap="round" stroke-linejoin="round"/>
<path d="M62.6471 34.978C62.6471 34.978 62.125 34.978 61.603 34.978C61.603 34.978 61.0809 34.978 60.5588 34.978C60.5588 35.5 60.0368 35.5 60.0368 36.0221C59.5147 37.0662 59.5147 37.5883 58.9927 39.1544C58.4706 40.7206 58.4706 42.2868 57.9485 44.375" stroke="#EF7F1A" stroke-width="2.08824" stroke-miterlimit="22.9256" stroke-linecap="round" stroke-linejoin="round"/>
<path d="M58.4706 69.9559H42.2868V79.875H58.4706V69.9559Z" stroke="#EF7F1A" stroke-width="2.08824" stroke-miterlimit="22.9256" stroke-linecap="round" stroke-linejoin="round"/>
</svg>
