<svg width="95" height="81" viewBox="0 0 95 81" fill="none" xmlns="http://www.w3.org/2000/svg">
<path d="M23.6956 0H90.2174C90.6522 0 91.0869 0.434783 91.0869 0.869565V72.1739C91.0869 72.6087 90.6522 73.0435 90.2174 73.0435H23.6956C23.2609 73.0435 22.8261 72.6087 22.8261 72.1739V60.8696H24.5652V70.8696H89.3478V2.17391H24.5652V39.1304H22.8261V0.869565C22.8261 0.434783 23.2609 0 23.6956 0V0Z" fill="#EF7F1A"/>
<path fill-rule="evenodd" clip-rule="evenodd" d="M27.6087 5.21738H86.3043V67.8261H27.6087V60.8695H30.6522V64.7826H52.3913V8.26085H30.6522V39.1304H27.6087V5.21738Z" stroke="#EF7F1A" stroke-width="0.869565" stroke-miterlimit="22.9256" stroke-linecap="round" stroke-linejoin="round"/>
<path fill-rule="evenodd" clip-rule="evenodd" d="M30.6522 8.26086H52.3913V64.7826H30.6522V60.8696H44.1304C46.3043 60.8696 48.4782 58.6956 48.4782 56.0869V43.4783C48.4782 41.3043 46.3043 39.1304 44.1304 39.1304H30.6522V8.26086V8.26086Z" stroke="#EF7F1A" stroke-width="0.869565" stroke-miterlimit="22.9256" stroke-linecap="round" stroke-linejoin="round"/>
<path fill-rule="evenodd" clip-rule="evenodd" d="M55 6.52173H85V66.5217H55V6.52173V6.52173ZM57.6087 9.56521H81.9565V63.4783H57.6087V36.0869H56.7391C56.3043 36.0869 55.8696 35.6522 55.8696 35.2174C55.8696 34.7826 56.3043 34.3478 56.7391 34.3478H57.6087V9.56521V9.56521Z" stroke="#EF7F1A" stroke-width="0.869565" stroke-miterlimit="22.9256" stroke-linecap="round" stroke-linejoin="round"/>
<path d="M93.2609 72.1739H19.3478V79.1304H93.2609V72.1739Z" stroke="#EF7F1A" stroke-width="2.17391" stroke-miterlimit="22.9256" stroke-linecap="round" stroke-linejoin="round"/>
<path d="M60.6522 34.3478H55.8696C55.3893 34.3478 55 34.7372 55 35.2174V35.6522C55 36.1324 55.3893 36.5218 55.8696 36.5218H60.6522C61.1324 36.5218 61.5217 36.1324 61.5217 35.6522V35.2174C61.5217 34.7372 61.1324 34.3478 60.6522 34.3478Z" stroke="#EF7F1A" stroke-width="0.869565" stroke-miterlimit="22.9256" stroke-linecap="round" stroke-linejoin="round"/>
<path fill-rule="evenodd" clip-rule="evenodd" d="M11.9565 39.1304H44.1304C46.3043 39.1304 48.4782 41.3043 48.4782 43.4783V56.087C48.4782 58.6956 46.3043 60.8696 44.1304 60.8696H11.9565C10.2174 60.8696 8.47825 59.1304 8.04347 57.3913C4.13042 56.9565 1.08694 53.913 1.08694 50C1.08694 46.5217 4.13042 43.0435 8.04347 42.6087C8.47825 40.8696 10.2174 39.1304 11.9565 39.1304V39.1304Z" stroke="#EF7F1A" stroke-width="2.17391" stroke-miterlimit="22.9256"/>
<path d="M8.04348 52.6087C9.48422 52.6087 10.6522 51.4407 10.6522 50C10.6522 48.5592 9.48422 47.3913 8.04348 47.3913C6.60274 47.3913 5.43478 48.5592 5.43478 50C5.43478 51.4407 6.60274 52.6087 8.04348 52.6087Z" stroke="#EF7F1A" stroke-width="0.869565" stroke-miterlimit="22.9256"/>
<path d="M35.8696 48.6956H31.9565V56.5217H35.8696V48.6956Z" stroke="#EF7F1A" stroke-width="0.869565" stroke-miterlimit="22.9256"/>
<path d="M31.9565 49.5652C31.0869 49.1304 29.7826 48.2609 29.3478 47.8261C28.913 46.9565 28.4782 46.5217 28.4782 46.087C28.4782 45.6522 28.0435 45.2174 28.0435 44.7826C28.0435 44.3478 28.0435 43.9131 28.0435 43.4783C27.6087 43.0435 27.6087 43.0435 27.6087 43.0435C27.1739 43.0435 27.1739 43.0435 26.7391 43.0435C26.7391 43.0435 26.3043 43.0435 26.3043 43.4783C25.8696 43.4783 25.8696 43.9131 25.8696 44.7826C25.8696 45.2174 25.8696 46.087 25.8696 46.5218C25.8696 46.9565 25.8696 47.8261 26.3043 48.2609C26.3043 48.6957 26.7391 48.6957 26.7391 48.6957C26.7391 48.6957 26.7391 48.6957 25.8696 48.6957C25 48.6957 23.2609 48.6957 22.3913 49.1304C21.5217 49.1304 21.5217 49.1304 21.5217 49.1304C21.5217 49.1304 21.0869 49.5652 21.0869 50V50.4348C21.0869 50.8696 21.5217 50.8696 21.5217 51.3044V51.7391V52.1739C21.5217 52.6087 21.9565 52.6087 21.9565 53.0435H22.3913C22.3913 53.0435 22.3913 53.0435 21.9565 53.4783C21.9565 53.4783 21.9565 53.4783 21.9565 53.9131C21.9565 54.3478 21.9565 54.3478 22.3913 54.7826L22.8261 55.2174V55.6522C22.8261 56.087 22.8261 56.087 23.2609 56.5217C23.2609 56.5217 23.6956 56.5217 24.5652 56.9565C25.8696 56.9565 27.6087 56.9565 28.913 56.5217C30.2174 56.5217 31.0869 56.087 31.9565 55.6522" stroke="#EF7F1A" stroke-width="0.869565" stroke-miterlimit="22.9256"/>
<path d="M8.91304 52.1739C8.91304 51.7391 8.91304 50.8696 8.47826 50.4348C8.04348 50 6.73913 50 5.43478 50.8696C3.69565 51.7391 2.3913 53.9131 2.3913 55.6522C1.95652 57.8261 3.26087 60.4348 5 62.1739C7.17391 63.4783 10.2174 64.7826 12.3913 65.6522C15 66.5217 16.7391 67.3913 17.6087 68.2609C18.913 69.5652 18.913 70.8696 19.3478 72.1739" stroke="#EF7F1A" stroke-width="0.869565" stroke-miterlimit="22.9256"/>
<path d="M11.9565 60.8696C13.6956 62.1739 15 63.913 15.8696 65.2174C17.1739 66.5217 18.4783 67.3913 18.913 68.2609C19.3478 69.5652 19.3478 70.8696 19.3478 72.1739" stroke="#EF7F1A" stroke-width="0.869565" stroke-miterlimit="22.9256"/>
</svg>
