<svg width="75" height="85" viewBox="0 0 75 85" fill="none" xmlns="http://www.w3.org/2000/svg">
<path fill-rule="evenodd" clip-rule="evenodd" d="M0.903931 6.62955H15.6948V9.96942H43.8451V6.62955H59.1131V50.0478C58.636 50.0478 57.6817 50.0478 57.2046 50.0478C55.2961 50.0478 53.8647 50.0478 52.4333 50.525V14.7407H15.2177L8.06079 20.9433V66.2701H40.5052V66.7472C40.5052 69.1328 40.9824 71.5184 41.9366 73.4269H0.903931V6.62955V6.62955Z" stroke="#EF7F1A" stroke-width="1.80791" stroke-miterlimit="22.9256" stroke-linecap="round" stroke-linejoin="round"/>
<path fill-rule="evenodd" clip-rule="evenodd" d="M15.6948 3.28946H24.283V4.24371H34.7797V3.28946H43.8451V9.9692H15.6948V3.28946Z" stroke="#EF7F1A" stroke-width="1.80791" stroke-miterlimit="22.9256" stroke-linecap="round" stroke-linejoin="round"/>
<path d="M34.7798 0.903961H24.283V4.24383H34.7798V0.903961Z" stroke="#EF7F1A" stroke-width="1.80791" stroke-miterlimit="22.9256" stroke-linecap="round" stroke-linejoin="round"/>
<path fill-rule="evenodd" clip-rule="evenodd" d="M15.2177 14.7406H52.4333V50.5249C45.7536 52.4334 40.5052 58.636 40.5052 66.27H8.06079V20.9432L15.2177 14.7406V14.7406Z" stroke="#EF7F1A" stroke-width="1.80791" stroke-miterlimit="22.9256" stroke-linecap="round" stroke-linejoin="round"/>
<path fill-rule="evenodd" clip-rule="evenodd" d="M15.2177 14.7406L8.06079 20.9432H15.2177V14.7406Z" stroke="#EF7F1A" stroke-width="0.903955" stroke-miterlimit="22.9256" stroke-linecap="round" stroke-linejoin="round"/>
<path d="M20.9432 27.1457H13.7863V33.8254H20.9432V27.1457Z" stroke="#EF7F1A" stroke-width="0.903955" stroke-miterlimit="22.9256" stroke-linecap="round" stroke-linejoin="round"/>
<path d="M20.9432 40.5053H13.7863V47.185H20.9432V40.5053Z" stroke="#EF7F1A" stroke-width="0.903955" stroke-miterlimit="22.9256" stroke-linecap="round" stroke-linejoin="round"/>
<path d="M20.9432 52.9106H13.7863V59.5903H20.9432V52.9106Z" stroke="#EF7F1A" stroke-width="0.903955" stroke-miterlimit="22.9256" stroke-linecap="round" stroke-linejoin="round"/>
<path d="M25.2372 29.5314H47.185" stroke="#EF7F1A" stroke-width="0.903955" stroke-miterlimit="22.9256" stroke-linecap="round" stroke-linejoin="round"/>
<path d="M25.7144 31.9169H39.0738" stroke="#EF7F1A" stroke-width="0.903955" stroke-miterlimit="22.9256" stroke-linecap="round" stroke-linejoin="round"/>
<path d="M25.2372 42.4138H47.185" stroke="#EF7F1A" stroke-width="0.903955" stroke-miterlimit="22.9256" stroke-linecap="round" stroke-linejoin="round"/>
<path d="M25.7144 44.7995H39.0738" stroke="#EF7F1A" stroke-width="0.903955" stroke-miterlimit="22.9256" stroke-linecap="round" stroke-linejoin="round"/>
<path d="M25.2372 55.2961H44.7993" stroke="#EF7F1A" stroke-width="0.903955" stroke-miterlimit="22.9256" stroke-linecap="round" stroke-linejoin="round"/>
<path d="M25.7144 57.6818H39.0738" stroke="#EF7F1A" stroke-width="0.903955" stroke-miterlimit="22.9256" stroke-linecap="round" stroke-linejoin="round"/>
<path d="M15.2177 30.4856L17.1261 32.394L19.9889 28.5771" stroke="#EF7F1A" stroke-width="0.903955" stroke-miterlimit="22.9256" stroke-linecap="round" stroke-linejoin="round"/>
<path d="M15.2177 43.3681L17.1261 45.7537L19.9889 41.9367" stroke="#EF7F1A" stroke-width="0.903955" stroke-miterlimit="22.9256" stroke-linecap="round" stroke-linejoin="round"/>
<path d="M15.2177 56.2505L17.1261 58.159L19.9889 54.342" stroke="#EF7F1A" stroke-width="0.903955" stroke-miterlimit="22.9256" stroke-linecap="round" stroke-linejoin="round"/>
<path d="M57.2046 83.4465C66.4274 83.4465 73.9039 75.9699 73.9039 66.7471C73.9039 57.5243 66.4274 50.0478 57.2046 50.0478C47.9818 50.0478 40.5052 57.5243 40.5052 66.7471C40.5052 75.9699 47.9818 83.4465 57.2046 83.4465Z" stroke="#EF7F1A" stroke-width="1.80791" stroke-miterlimit="22.9256"/>
<path d="M66.7471 64.3615H61.4987V74.8582H66.7471V64.3615Z" stroke="#EF7F1A" stroke-width="0.903955" stroke-miterlimit="22.9256"/>
<path d="M61.4987 65.3158C60.5445 64.3615 59.1131 63.4073 58.636 62.453C57.6817 61.9759 57.2046 61.0217 57.2046 60.5445C56.7275 60.0674 56.7275 59.1132 56.7275 58.6361C56.2504 57.6818 56.2504 57.2047 56.2504 56.7276C56.2504 56.7276 56.2504 56.2504 55.7732 56.2504C55.7732 56.2504 55.2961 56.2504 54.819 56.2504C54.3419 56.2504 54.3419 56.2504 54.3419 56.7276C53.8647 57.2047 53.8647 57.6818 53.8647 58.6361C53.3876 59.1132 53.3876 60.0674 53.8647 61.0217C53.8647 61.9759 53.8647 62.453 54.3419 63.4073C54.3419 63.8844 54.819 63.8844 54.819 63.8844C54.819 64.3615 54.3419 64.3615 53.3876 64.3615C52.4334 64.3615 50.0477 64.3615 49.0935 64.3615C48.1392 64.3615 47.6621 64.3615 47.6621 64.3615C47.6621 64.8387 47.185 65.3158 47.185 65.3158C47.185 65.7929 47.185 66.27 47.185 66.27C47.6621 66.7472 47.6621 67.2243 48.1392 67.2243C48.1392 67.2243 48.1392 67.2243 48.1392 67.7014C47.6621 67.7014 47.6621 67.7014 47.6621 68.1785V68.6557C48.1392 69.1328 48.1392 69.6099 48.1392 69.6099C48.6164 69.6099 48.6164 69.6099 48.6164 70.087C48.6164 70.5642 48.1392 70.5642 48.1392 71.0413C48.1392 71.5184 48.6164 71.5184 48.6164 71.9955C49.0935 72.4727 49.5706 72.4727 49.5706 72.4727V72.9498C49.5706 72.9498 49.5706 72.9498 49.5706 73.4269C49.5706 73.4269 49.5706 73.904 50.0477 74.3811C50.0477 74.3811 50.5249 74.8583 51.9562 74.8583C53.3876 74.8583 55.7732 74.8583 57.6817 74.3811C59.5902 74.3811 60.5445 73.904 61.4987 73.4269" stroke="#EF7F1A" stroke-width="0.903955" stroke-miterlimit="22.9256"/>
</svg>
